# xmcd
#
# Track frame offsets: 
#        150
#        15071
#        28396
#        42171
#        55004
#        68765
#        87853
#        102342
#        121552
#        135464
#        152194
#        180564
#        195328
#        220459
#        243887
#        258175
#        272220
#        282162
#
# Disc length: 4095 seconds
#
# Revision: 1
# Processed by: cddbd v1.5.2PL0 Copyright (c) Steve Scherf et al.
# Submitted via: ExactAudioCopyFreeDBPlugin 1.0
#
DISCID=eb0ffd12
DTITLE=Al Green - 2001 - The Very Best Of Al Green
DYEAR=2001
DGENRE=
TTITLE0=Lets Stay Together
TTITLE1=Sha La La (Make Me Happy)
TTITLE2=L-O-V-E (Love)
TTITLE3=Tired Of Being Alone
TTITLE4=Call Me (Come Back Home)
TTITLE5=Simply Beautiful
TTITLE6=I'm Still In Love With You
TTITLE7=Here I Am (Come And Take Me)
TTITLE8=Look What You Done For Me
TTITLE9=Take Me To The River
TTITLE10=How Can You Mend A Broken Heart
TTITLE11=You Ought To Be With Me
TTITLE12=Lets Get Married
TTITLE13=Ful Of Fun
TTITLE14=Livin' For You
TTITLE15=Keep Me Cryin'
TTITLE16=I Say A Little Prayer
TTITLE17=Unchained Melody
EXTD=
EXTT0=
EXTT1=
EXTT2=
EXTT3=
EXTT4=
EXTT5=
EXTT6=
EXTT7=
EXTT8=
EXTT9=
EXTT10=
EXTT11=
EXTT12=
EXTT13=
EXTT14=
EXTT15=
EXTT16=
EXTT17=
PLAYORDER=
